<svg id="Logo" xmlns="http://www.w3.org/2000/svg" width="1080" height="1080" viewBox="0 0 640 640">
  <defs>
    <style>
      .cls-1 {
        fill: #90a4ae;
      }

      .cls-2 {
        fill: #f3ead9;
      }

      .cls-2, .cls-3, .cls-4 {
        fill-rule: evenodd;
      }

      .cls-3 {
        fill: #c0b8a8;
      }

      .cls-4 {
        fill: #4caf50;
      }
    </style>
  </defs>
  <g id="Quarter_markers" data-name="Quarter markers">
    <rect class="cls-1" x="307" y="90" width="31" height="54"/>
    <rect class="cls-1" x="88" y="297" width="58" height="31"/>
    <rect id="Rectangle_2_copy" data-name="Rectangle 2 copy" class="cls-1" x="492" y="297" width="72" height="30"/>
    <rect id="Rectangle_1_copy" data-name="Rectangle 1 copy" class="cls-1" x="307" y="477" width="31" height="62"/>
  </g>
  <g id="Background">
    <path id="Rounded_Rectangle_2" data-name="Rounded Rectangle 2" class="cls-2" d="M582.908,51.144l44.106,44.106a44.555,44.555,0,0,1,0,63.009l-31.5,31.5L488.394,82.649l31.5-31.5A44.554,44.554,0,0,1,582.908,51.144Z"/>
    <path class="cls-2" d="M315.043,0C488.519,0,629.149,140.63,629.149,314.106S488.519,628.212,315.043,628.212,0.936,487.582.936,314.106,141.567,0,315.043,0Zm3.341,93.564c121.187,0,219.429,98.242,219.429,219.429S439.571,532.421,318.384,532.421,98.956,434.179,98.956,312.992,197.2,93.564,318.384,93.564Z"/>
    <path class="cls-3" d="M316.157,37.871c150.714,0,272.893,122.179,272.893,272.894S466.871,583.658,316.157,583.658,43.263,461.48,43.263,310.765,165.442,37.871,316.157,37.871Zm2.227,55.693c121.187,0,219.429,98.242,219.429,219.429S439.571,532.421,318.384,532.421,98.956,434.179,98.956,312.992,197.2,93.564,318.384,93.564Z"/>
  </g>
  <g id="Tick">
    <path class="cls-4" d="M561.256,69.777l49.5,49.5L334.982,395.046l-49.5-49.5Z"/>
    <path class="cls-4" d="M231.744,194.228L383.772,346.256l-49.5,49.5L182.247,243.725Z"/>
  </g>
</svg>
